<?xml version="1.0" encoding="utf-8"?>
<!-- Generator: Adobe Illustrator 14.0.0, SVG Export Plug-In . SVG Version: 6.00 Build 43363)  -->
<!DOCTYPE svg PUBLIC "-//W3C//DTD SVG 1.1//EN" "http://www.w3.org/Graphics/SVG/1.1/DTD/svg11.dtd">
<svg version="1.1" id="图层_1" xmlns="http://www.w3.org/2000/svg" xmlns:xlink="http://www.w3.org/1999/xlink" x="0px" y="0px"
	 width="699.75px" height="700px" viewBox="0 0 699.75 700" enable-background="new 0 0 699.75 700" xml:space="preserve">
<path fill="#FFFFFF" d="M233.694,203.541c-1.776,2.572-3.333,3.528-6.744,3.552c-3.22,0.022-6.572-0.168-9.834-0.843
	c-3.974-0.822-7.792-2.944-11.741-3.416c-7.377-0.881-11.354,5.033-17.658,6.34c-6.717,1.394-13.957-1-19.751,3.392
	c-5.56,4.215-9.737,9.607-14.517,14.599c-3.252,3.397-6.676,6.453-8.84,10.668c-1.285,2.503-1.837,5.314-3.551,7.667
	c-1.768,2.426-3.772,3.419-4.024,6.659c-0.334,4.298,1.897,6.825,4.267,9.924c3.388,4.431,2.741,10.404,2.741,15.748
	c0,5.84-2.325,12.737,0.365,18.277c1.243,2.561,3.701,4.241,5.325,6.441c2.075,2.811,4.536,6.148,5,9.692
	c0.309,2.36-0.034,4.767-0.701,6.974c-0.265,0.875-1.391,1.709-1.353,2.587c0.167,3.931,7.763,8.279,5.477,12.66
	c-0.937,1.795-4.693,2.867-6.107,5.088c-1.878,2.952-2.926,6.545-3.038,10.034c-0.104,3.237,1.549,7.19,1.12,10.272
	c-0.235,1.691-1.832,2.961-2.846,4.619c-2.065,3.38-4.408,8.789-4.926,12.775c-0.521,4.012,1.328,9.223,1.941,13.265
	c1.266,8.351,9.513,6.045,16.091,8.243c2.89,0.965,4.139,1.507,6.297,3.731c5.74,5.914,11.333,3.545,18.694,5.41
	c4.933,1.251,13.387,4.417,17.04,8.046c1.801,1.789,2.864,5.2,4.299,7.379c1.903,2.889,4.023,5.628,6.009,8.46
	c4.79,6.832,2.056,10.697,2.947,18.08c0.543,4.503,4.863,5.607,6.453,9.262c1.004,2.306,0.07,5.002,0.293,7.402
	c0.246,2.651,1.564,4.775,2.073,7.391c1.369,7.039-1.643,13.826-3.126,20.581c-1.118,5.093,0.063,11.119,1.656,16.001
	c3.793,11.627,16.106,18.398,25.09,25.666c8.468,6.851,14.044,10.995,25.186,9.584c6.134-0.777,12.689-1.5,18.831-0.5
	c3.499,0.569,6.957,1.615,10.506,1.835c3.674,0.228,6.738-0.936,10.291-1.346c7.368-0.849,14.195,3.335,21.371,4.176
	c8.803,1.031,14.777-5.531,22.713-7.437c3.185-0.764,6.146,0.077,9.457-1.206c3.211-1.244,6.209-3.303,8.829-5.515
	c3.138-2.649,5.779-5.679,9.315-7.84c5.897-3.603,10.56-6.583,17.728-7.119c7.007-0.523,14.199,0.466,21.012-1.691
	c6.316-2,12.348-6.151,16.955-10.859c2.13-2.177,5.59-5.806,8.751-6.253c3.56-0.504,7.479,2.102,11.224,2.194
	c3.833,0.095,7.916-0.783,11.691-1.356c13.12-1.992,26.146,11.831,38.748,5.666c3.717-1.818,8.677-4.142,11.651-6.993
	c3.875-3.713,2.229-6.169-0.918-9.415c-7.293-7.522-15.729-12.537-24.83-17.608c-3.787-2.111-7.394-4.814-9.602-8.73
	c-4.655-8.257,3.921-17.896,5.282-25.861c1.022-5.988,0.089-12.046,2.719-17.627c2.841-6.03,6.971-11.688,10.315-17.498
	c2.545-4.42,6.181-7.957,8.935-12.187c2.527-3.882,5.098-5.365,8.698-8.339c3.323-2.744,6.65-5.569,8.725-9.317
	c1.891-3.418,2.738-6.861,3.426-10.666c0.523-2.891,1.158-6.646,2.16-9.389c1.064-2.91,3.702-5.148,5.27-7.844
	c3.667-6.307,5.531-13.667,6.571-20.834c0.933-6.433,1.201-12.878,2.167-19.333c0.909-6.076,2.438-11.886,1.841-18.023
	c-1.099-11.288,5.851-19.292,8.899-29.66c1.396-4.744,0.933-6.043-0.25-10.602c-0.73-2.819,0.915-5.895,1.094-8.688
	c0.214-3.328,0.043-7.312-0.402-10.635c-0.495-3.684-1.449-7.538-2.517-11.1c-1.932-6.446-6.741-7.893-12.258-10.984
	c-6.252-3.503-13.633-3.995-19.973-7.259c-3.996-2.057-7.044-4.44-10.428-7.4c-3.577-3.13-7.016-6.552-11.509-8.249
	c-4.666-1.761-9.745-0.764-14.767-0.759c-4.472,0.004-8.978-0.23-13.399-0.649c-4.773-0.452-9.985,0.092-14.674-1.009
	c-3.205-0.752-5.886-2.886-8.91-4.008c-5.472-2.03-11.4-1.712-16.934-0.251c-4.125,1.088-7.967,1.898-12.058,0.266
	c-2.916-1.163-5.609-2.805-8.486-4.053c-2.936-1.273-5.912-1.28-8.802-2.222c-2.749-0.896-5.256-2.638-8.166-3.465
	c-2.946-0.837-5.994-1.392-8.82-2.609c-3.93-1.692-7.244-4.02-11.402-5.25c-6.418-1.899-12.516-4.989-18.991-6.667
	c-6.875-1.781-11.973,0.8-18.582,2.176c-15.957,3.32-33.239,1.773-48.832,6.15c-5.779,1.623-10.34,5.854-15.593,8.59
	c-3.344,1.742-6.658,3.4-9.583,5.759c-5.613,4.524-12.932,5.93-18.712,10.222C242.893,191.074,238.042,197.247,233.694,203.541z"/>
</svg>
