<?xml version="1.0" encoding="utf-8"?>
<!-- Generator: Adobe Illustrator 14.0.0, SVG Export Plug-In . SVG Version: 6.00 Build 43363)  -->
<!DOCTYPE svg PUBLIC "-//W3C//DTD SVG 1.1//EN" "http://www.w3.org/Graphics/SVG/1.1/DTD/svg11.dtd">
<svg version="1.1" id="图层_1" xmlns="http://www.w3.org/2000/svg" xmlns:xlink="http://www.w3.org/1999/xlink" x="0px" y="0px"
	 width="699.75px" height="700px" viewBox="0 0 699.75 700" enable-background="new 0 0 699.75 700" xml:space="preserve">
<g>
	<path fill="#FFFFFF" d="M362.875,189.375c0,0-1.667-1.167-1.958-3.458c-0.449-0.769-1-1.958-2.042-2.417c0,0-2.5-2.5-5.833-4
		c0,0-3.333-3.667-5.083-3.667c0,0-3.083-1-8.333,5.917c0,0-6.583,5.25-7.167,8.5c0,0-1.583,2.583-2.25,4.167
		c0,0-4.833,6-4.917,9.167c0,0-2.25,8.333,1.417,13.667c0,0,2.167,3.583,6.917,7.083c0,0,0.417,2.333,3.333,3.417
		c0,0,1.666,0.75,1.833,2.583c0.083,0.167-1.333,3.667,3.417,2.75c0,0,5.333-1.833,10.583-2.583c0,0,6.749,0,9.416-9.5
		c0,0,2.167-2.25,4.167-2.75c0,0,4.917-6,5.667-9.417l0.083-1.583c0,0,1.333-2,0.5-6.417l-0.666-0.583l-2.126-3.917l-1.208-0.667
		l-0.417-4.042c0,0-1.207-1.575-2.416-1.458C364.5,190.292,362.875,189.375,362.875,189.375z"/>
	<path fill="#FFFFFF" d="M369,326.75c-0.384-0.096-1.75-1.063-2.625-1.938c0,0-1.688-1.938-4.25,0.938c0,0-1.875,7,0.313,8.313
		c0,0,0.625,1.813,0.438,2.938c0,0,1.125,2.25,3.438,2.875c0,0,1-0.313,1.5,0.313c0,0-0.188,0.875,0.5,0.938
		c0,0,2.438,0.813,5.688-0.313c0,0,0.5-0.813,0-1.563c0.063-0.125,1.063-0.313,1.063-0.313s0.375-4.063-1.25-3.875L373.75,332
		l-1-0.625l-1.625-1.625l-1-2.25C370.125,327.5,369.25,326.813,369,326.75z"/>
</g>
</svg>
