<?xml version="1.0" encoding="utf-8"?>
<!-- Generator: Adobe Illustrator 14.0.0, SVG Export Plug-In . SVG Version: 6.00 Build 43363)  -->
<!DOCTYPE svg PUBLIC "-//W3C//DTD SVG 1.1//EN" "http://www.w3.org/Graphics/SVG/1.1/DTD/svg11.dtd">
<svg version="1.1" id="图层_1" xmlns="http://www.w3.org/2000/svg" xmlns:xlink="http://www.w3.org/1999/xlink" x="0px" y="0px"
	 width="699.75px" height="700px" viewBox="0 0 699.75 700" enable-background="new 0 0 699.75 700" xml:space="preserve">
<path fill="#FFFFFF" d="M254.908,457.334c0.31,4.51-0.099,8.804,1.832,13.316c2.592,6.06,7.057,11.63,12.235,15.74
	c2.514,1.995,6.17,2.216,8.474,4.425c2.252,2.159,2.301,5.021,5.224,6.787c5.014,3.031,10.747,0.661,16.054,0.146
	c7.606-0.737,13.335,5.925,20.893,4.335c6.477-1.362,12.45-5.852,19.292-1.607c3.307,2.052,3.629,6.26,7.94,7.022
	c7.428,1.314,13.673-4.298,18.686-8.959c5.756-5.353,12.288-9.847,15.816-16.871c1.695-3.375,2.136-6.396,5-9.024
	c3.693-3.391,9.061-4.257,12.537-8.077c1.819-1.999,1.937-4.878,4.078-6.702c3.341-2.847,6.21-0.701,9.904-1.84
	c6.257-1.931,8.86-10.063,14.615-13.01c3.873-1.983,7.908-0.861,11.896-2.49c3.589-1.466,5.518-4.363,8.002-7.05
	c3.986-4.312,9.351-8.26,10.635-14.475c1.479-7.155-1.68-11.448,4.244-15.876c4.101-3.065,6.509-5.316,7.694-10.539
	c4.754-2.521,10.468-2.73,15.166-5.396c6.323-3.589,4.802-8.125,7.576-13.977c1.278-2.696,4.028-4.134,5.183-6.712
	c0.908-2.028,0.373-5.162,0.881-7.376c1.479-6.453,7.48-8.227,11.121-14.259c3.377-5.596,2.921-14.693,3.854-21.034
	c1.16-7.877,6.137-13.065,7.889-20.411c1.729-7.244-1.123-17.008,1.844-23.81c3.061-7.016,8.423-14.876,6.092-22.912
	c-1.921-6.626-9.39-11.435-15.568-13.748c-6.713-2.5-13.784-0.212-19.955-5.087c-7.333-5.793-14.483-10.589-23.767-13.501
	c-7.622-2.391-14.707-0.232-22.431-0.141c-5.941,0.07-10.892-1.324-16.514-2.879c-13.335-3.688-28.846-1.291-41.101-8.504
	c-4.749-2.796-7.02-8.255-12.467-9.725c-7.987-2.154-10.283-2.786-16.275-8.648c-4.196-4.105-10.235-3.34-15.713-2.1
	c-3.969,0.899-7.514,3.221-11.512,3.647c-3.178,0.339-5.833-1.018-8.915-1.012c-5.719,0.012-11.68,2.498-16.597,5.013
	c-2.922,1.495-6.028,2.803-8.877,4.461c-3.092,1.799-5.259,6.967-7.974,8.073c-2.739,1.115-3.338-2.131-6.524,0.453
	c-1.382,1.12-2.029,3.29-2.989,4.609c-4.028,5.534-9.015,8.461-14.281,12.425c-5.598,4.213-5.503,10.525-8.706,16.355
	c-1.281,2.331-2.755,2.943-3.051,5.612c-0.228,2.055,1.752,4.061,0.924,6.385c-5.652,15.874-18.564-4.455-24.996-5.284
	c-2.139-0.269-2.838,2.193-4.902,2.532c-2.697,0.444-2.97-1.005-5.137-1.522c-5.109-1.22-7.251,1.993-11.53,3.642
	c-3.388,1.306-8.528,0.623-10.478,4.636c-0.699,1.439,0.447,4.147-0.208,6.098c-1.493,4.444-6.805,6.919-9.144,11.02
	c-2.717,4.765-4.63,10.466-5.404,15.881c-0.409,2.862,1.573,6.087,0.91,8.611c-0.971,3.696-4.2,2.268-5.91,4.611
	c-2.135,2.925,1.276,9.992,3.976,12.403c4.232,3.78,10.178,5.004,12.97,10.359c2.188,4.197,2.591,11.508,2.767,16.307
	c0.4,10.92-13.253,15.129-12.796,25.632c0.285,6.544,9.998,11.596,15.011,14.188c7.393,3.823,13.406,8.561,19.461,13.889
	c5.33,4.691,8.082,11.995,12.136,17.623c2.833,3.934,6.181,5.27,9.786,8.11c4.053,3.195,4.299,8.169,5.371,12.804
	c1.145,4.954,4.397,8.971,5.328,13.938C254.705,455.04,254.829,456.194,254.908,457.334z"/>
</svg>
