<?xml version="1.0" encoding="utf-8"?>
<!-- Generator: Adobe Illustrator 14.0.0, SVG Export Plug-In . SVG Version: 6.00 Build 43363)  -->
<!DOCTYPE svg PUBLIC "-//W3C//DTD SVG 1.1//EN" "http://www.w3.org/Graphics/SVG/1.1/DTD/svg11.dtd">
<svg version="1.1" id="图层_1" xmlns="http://www.w3.org/2000/svg" xmlns:xlink="http://www.w3.org/1999/xlink" x="0px" y="0px"
	 width="699.75px" height="700px" viewBox="0 0 699.75 700" enable-background="new 0 0 699.75 700" xml:space="preserve">
<path fill="#FFFFFF" d="M696.063,337.688c0.591-3.523,1.137-6.916,0.38-10.439c-0.722-3.362-2.132-6.695-2.497-10.111
	c-0.418-3.911,1.017-7.795,0.193-11.705c-1.242-5.9-4.867-10.997-6.068-16.933c-0.633-3.124-1.049-6.024-2.391-9.006
	c-1.311-2.912-3.611-4.043-5.811-6.182c-1.73-1.683-2.882-4.017-4.232-6.044c-6.088-9.142-15.963-14.733-13.769-26.951
	c1.217-6.772-2.148-13.286-3.325-19.811c-0.625-3.47,0.117-5.974,0.467-9.268c0.315-2.967-1.305-5.024-3.081-7.295
	c-3.298-4.216-6.099-8.649-9.56-12.749c-5.223-6.188-7.564-14.104-8.501-22.02c-0.474-4.006-0.599-8.045-0.6-12.077
	c-0.001-1.807-0.241-3.893,0.074-5.672c0.298-1.686,1.205-3.069,1.281-4.863c0.086-2.015-0.184-3.765-0.804-5.638
	c-1-3.018-1.814-5.626-3.445-8.364c-1.917-3.217-3.963-6.667-4.938-10.298c-1.029-3.839-1.574-7.728-2.819-11.5
	c-1.542-4.669-3.033-7.96-6.736-11.336c-3.734-3.404-7.855-7.275-12.258-9.738c-5.77-3.228-11.626-5.805-17.75-8.369
	c-3.765-1.576-7.701-2.654-10.928-5.265c-3.56-2.88-4.3-6.202-6.622-9.985c-2.217-3.612-6.064-6.304-9.264-8.993
	c-6.465-5.434-13.968-9.456-21.753-12.658c-7.931-3.262-15.679-5.922-22.95-10.593c-4.34-2.788-9.321-4.344-13.346-7.659
	c-4.413-3.634-9.565-7.436-14.978-9.663c-9.444-3.887-19.128-6.326-29.25-7.761c-11.765-1.667-24.235-0.611-35.976,0.675
	c-5.973,0.655-11.62,2.245-17.498,3.407c-2.342,0.462-4.965,0.425-7.226,1.192c-2.577,0.875-4.219,2.166-7.116,2.406
	c-6.548,0.542-12.934-1.856-19.458-1.923c-6.249-0.064-11.515,1.485-17.511,3.124c-16.74,4.575-32.382,9.948-49.663,12.487
	c-14.849,2.182-30.417,3.097-44.962-1.125c-4.307-1.25-7.804-4.041-12-5.625c-28.964-10.938-54.206-1.274-80.203,13.27
	c-12.14,6.792-22.51,17.503-33.464,25.888c-14.557,11.143-31.258,15.872-42.332,31.456c-6.014,8.463-9.044,18.538-13.528,27.635
	c-5.372,10.898-11.804,20.622-21.425,28.176c-12.361,9.706-16.08,22.145-21.412,36.089c-2.777,7.263-5.612,14.076-7.761,21.526
	c-2.486,8.616-3.238,16.94-6.752,25.225c-3.46,8.16-9.158,12.159-14.137,18.876c-1.768,2.385-2.366,5.268-4.461,7.498
	c-2.651,1.125-3.567,1.19-3.901,4.375l0.375,142.958c5.076,1.106,6.765,10.273,7.466,14.501c0.583,3.519,0.183,7.044,1.229,10.504
	c0.985,3.257,2.792,6.241,4.48,9.171c2.757,4.786,5.983,8.421,9.99,12.194c4.829,4.549,6.433,12.944,6.501,19.305
	c0.021,1.973,0.748,3.477,1.008,5.366c0.933,6.779-1.128,13.489-0.804,20.253c0.351,7.31-1.235,14.692,0.084,21.922
	c0.432,2.372,1.022,4.676,1.342,7.064c0.217,1.628,0.093,3.385,0.609,4.961c0.657,2.004,1.315,2.906,1.095,5.221
	c-0.298,3.133-0.342,6.418,0.038,9.553c0.612,5.042,2.141,10.176,3.625,15.025c1.202,3.931,4.503,6.491,6.137,10.284
	c1.116,2.592,1.199,5.528,2.61,8.017c1.326,2.337,2.434,2.362,4.765,3.152c2.448,0.83,4.312,3.25,5.825,5.244
	c2.975,3.92,5.596,6.87,10.008,9.229c2.726,1.457,5.546,2.672,8.164,4.326c4.8,3.034,10.305,6.254,15.788,7.841
	c3.737,1.081,7.527,0.482,11.349,0.692c3.582,0.196,7.608,0.844,11.151,1.508c2.258,0.424,4.416,1.247,6.67,1.671
	c3.774,0.709,7.644,1.182,11.342,2.208c2.808,0.778,5.138,1.358,7.696,2.824c1.654,0.948,3.361,1.844,4.799,3.13
	c1.027,0.918,1.512,2.33,2.645,3.131c0.953,0.674,2.48,1.113,3.551,1.703c4.78,2.632,5.834,6.766,8.043,11.299
	c1.483,3.044,5.079,3.813,7.8,5.404c3.831,2.24,5.02,6.175,6.098,10.178c0.541,2.006,1.651,3.715,2.433,5.626
	c0.888,2.172,1.494,4.466,2.766,6.463c2.19,3.44,5.447,4.598,9.079,6.237c1.944,0.878,4.053,1.36,6.01,2.219
	c1.93,0.846,3.348,2.204,5.115,3.275c4.821,2.924,10.97,1.813,16.042,4.086c5.795,2.596,11.416,3.477,17.743,3.547
	c5.126,0.057,10.123,1.38,15.249,1.331c3.147-0.029,6.05-0.811,9.133-1.337c2.266-0.386,4.526-0.899,6.779-1.332
	c2.628-0.505,5.259-0.214,7.887-0.617c2.908-0.447,5.204-1.965,7.864-3.096c7.892-3.354,16.995-2.305,25.308-1.658
	c5.688,0.442,12.448,0.014,17.788,2.324c2.012,0.871,3.423,2.342,5.579,3.05c3.077,1.012,6.363,1.426,9.368,2.61
	c2.885,1.138,5.525,3.052,8.715,3.231c3.182,0.18,6.401-0.11,9.587-0.013c4.284,0.132,8.532,0.602,12.809,0.879
	c5.819,0.377,11.481,0.839,17.193,2.125c3.843,0.865,6.504,0.4,10.311-0.338c4.917-0.952,9.992-1.124,14.936-1.99
	c4.9-0.859,8.896-2.282,13.993-1.843c3.842,0.331,7.59,1.18,11.384,0.014c4.039-1.241,6.637-4.573,10.365-6.351
	c8.068-3.847,16.492-1.25,24.919-2.505c5.711-0.851,9.879-5.321,14.268-8.628c3.016-2.271,4.094-5.625,6.777-8.192
	c2.94-2.813,7.242-2.98,10.566-5.114c1.713-1.099,2.4-2.926,3.909-4.298c1.751-1.592,3.775-2.85,5.524-4.446
	c3.021-2.756,6.104-7.35,10.501-7.99c1.432-0.208,3.053,0.303,4.5,0.348c3.951,0.124,6.128-0.99,9.624-2.675
	c4.906-2.364,6.697-7.625,9.579-12.045c1.947-2.988,4.199-5.607,5.559-8.955c1.156-2.851,1.672-5.169,4.047-7.303
	c1.88-1.689,4.099-2.907,6.148-4.363c1.702-1.209,3.573-2.264,5.367-3.325c2.14-1.266,3.782-2.93,5.828-4.329
	c2.529-1.729,4.533-4.061,7.004-5.85c2.379-1.722,4.229-1.604,6.964-1.321c3.124,0.322,6.233-0.04,9.337-0.383
	c2.417-0.267,5.531-0.382,7.828-1.117c1.42-0.455,2.859-0.71,4.38-0.471c2.411,0.379,5.322,1.408,7.708,0.146
	c2.046-1.084,4.47-3.614,5.792-5.468c1.509-2.116,2.316-5.091,4.63-6.557c0.833-0.527,1.805-0.632,2.574-1.301
	c1.171-1.017,2.117-2.772,3.087-4.016c1.65-2.112,3.161-4.144,4.001-6.707c0.852-2.598,0.324-5.543,1.033-8.273
	c0.975-3.754,1.7-7.637,3.306-11.19c1.565-3.464,4.443-6.704,6.652-9.833c0.864-1.223,2.251-2.09,3.059-3.28
	c0.813-1.198,1.188-2.797,1.988-4.053c2.55-4.005,2.987-8.947,3.665-13.664c0.635-4.423,1.026-8.881,1.139-13.348
	c0.084-3.321-0.245-6.715,0.201-10.026c0.263-1.954,1.458-3.302,1.341-5.584c-0.258-5.021,0.751-10.224,2.881-14.777
	c2.12-4.533,6.63-7.51,8.618-11.977c0.561-1.261,0.78-2.616,1.529-3.791c1.261-1.977,3.123-3.188,3.597-5.701
	c0.664-3.527-0.807-7.311-0.1-10.808c0.335-1.657,1.595-3.13,2.294-4.643c2.831-6.131,2.523-13.268,4.644-19.669
	c1.407-4.248,3.886-3.167,6.382-5.891c1.622-1.77,2.465-5.129,3.636-7.252c1.085-1.967,1.747-3.19,1.688-5.534
	c-0.104-4.164-1.887-8.371,0.139-12.269c1.953-3.76,1.325-4.348,0.151-8.409c-0.674-2.329-0.049-5.583-0.246-8.015
	c-0.162-1.994-0.801-4.003-0.815-5.986c1.639,2.113,2.367-2.377,2.495-3.299c0.379-2.739,0.097-4.45-0.503-7.021
	c-0.326-1.399-0.158-2.578,0.024-4.006C694.511,343.529,695.561,340.677,696.063,337.688z"/>
</svg>
