<?xml version="1.0" encoding="utf-8"?>
<!-- Generator: Adobe Illustrator 14.0.0, SVG Export Plug-In . SVG Version: 6.00 Build 43363)  -->
<!DOCTYPE svg PUBLIC "-//W3C//DTD SVG 1.1//EN" "http://www.w3.org/Graphics/SVG/1.1/DTD/svg11.dtd">
<svg version="1.1" id="图层_1" xmlns="http://www.w3.org/2000/svg" xmlns:xlink="http://www.w3.org/1999/xlink" x="0px" y="0px"
	 width="699.75px" height="700px" viewBox="0 0 699.75 700" enable-background="new 0 0 699.75 700" xml:space="preserve">
<path fill="#FFFFFF" d="M245.384,231.189c-0.227,2.5-0.657,3.94-2,5.978c-1.24,1.882-2.836,5.939-4.343,6.666
	c-1.636,0.788-8.027,0.121-9.673-0.658c-2.683-1.269-5.418-4.991-8.4-6.749c-6.761-3.986-13.279-6.469-21.26-5.35
	c-7.445,1.043-13.373-1.997-20.415,1.416c-4.77,2.311-6.34,6.458-9.898,10.083c-2.348,2.392-5.717,4.771-4.61,8.59
	c0.689,2.379,2.394,4.503,3.102,6.651c0.595,1.804,0.445,3.85,1.343,5.877c1.408,3.176,6.739,8.517,5.083,12.319
	c-1.649,3.788-9.031,3.335-10.434,8.979c-1.061,4.266,1.833,8.247,0.022,12.008c-0.851,1.767-2.737,1.233-3.536,3.346
	c-2.12,5.615,4.481,10.542,7.613,14.074c4.152,4.683,3.776,8.515,5.14,14.181c1.175,4.882,4.729,7.587,3.912,13.046
	c-0.629,4.205-3.148,7.962-5.408,11.454c-4.519,6.979-10.889,15.213-6.195,23.736c2.036,3.697,8.883,10.598,12.636,12.008
	c2.673,1.004,6.855,0.943,8.995,2.967c1.526,1.443,2.118,3.934,3.838,5.164c2.403,1.719,4.333,0.385,7.035,1.246
	c6.742,2.147,12.217,8.881,17.785,12.972c4.9,3.601,9.525,6.846,10.938,13.059c0.589,2.588,0.265,3.534,2.142,5.584
	c2.415,2.637,4.374,3.736,5.198,7.667c1.322,6.302,1.598,12.559,3.382,18.832c3.018,10.61,0.268,21.719,3.742,32.507
	c1.085,3.37,2.613,7.485,5.506,9.74c3.651,2.845,8.473,0.814,12.346,3.632c3.697,2.689,3.763,6.425,6.384,9.556
	c2.073,2.475,5.918,3.315,8.697,4.743c2.349,1.207,4.798,3.062,7.409,3.747c3.145,0.826,6.776,0.413,10.003,0.911
	c4.797,0.742,9.173,1.534,14.039,1.289c5.159-0.261,11.021-0.943,15.841,1.353c2.296,1.095,3.09,2.458,5.743,2.702
	c3.726,0.343,6.094-1.962,9.346-3.054c3.706-1.244,7.887-0.639,11.72-0.951c3.264-0.266,7.159,0.44,9.97-1.184
	c2.451-1.416,5.377-2.191,7.756-3.611c3.485-2.08,5.722-5.772,9.083-8.049c3.445-2.333,8.087-2.184,11.922-3.835
	c4.383-1.887,7.907-5.121,11.99-7.51c2.997-1.753,6.534-2.92,9.26-5.008c4.329-3.316,6.702-7.168,10.21-11.095
	c2.723-3.046,5.396-6.315,8.284-9.19c4.402-4.38,9.314-7.165,14.756-9.969c2.865-1.477,6.165-2.401,8.813-4.24
	c2.203-1.527,5.157-3.21,6.708-5.444c0.847-1.22,0.625-2.291,1.232-3.473c0.728-1.416,2.139-2.237,3.219-3.364
	c3.423-3.573,7.303-7.313,10.271-11.253c1.715-2.277,2.392-4.115,2.745-6.794c0.224-1.696,0.29-2.547,1.244-3.934
	c0.658-0.957,1.419-1.224,1.762-2.288c0.368-1.141-0.134-2.518,0.233-3.705c1.829-5.914,7.338-10.123,9.777-15.562
	c1.648-3.679,0.524-5.441,3.881-8.488c4.326-3.928,6.946-1.096,11.508-3.111c3.842-1.697,3.089-4.891,4.092-8.375
	c2.323-8.065,9.187-12.278,13.482-18.627c3.922-5.795,0.932-12.914,2.083-19.273c0.667-3.681,3.899-12.182,8.424-11.402
	c1.941-5.117,4.218-10.231,3.995-15.823c-0.277-6.937-1.049-14.231,0.693-21.042c1.744-6.817,5.319-12.948,6.945-19.847
	c1.209-5.127,3.194-9.927,4.387-15.011c1.243-5.302,3.893-7.583,2.515-13c-2.473-9.722-0.97-20.235-14.489-20.389
	c-6.967-0.079-8.984-0.332-14.527-4.221c-4.873-3.418-7.913-3.027-13.496-3.879c-7.198-1.099-5.743-5.216-9.99-8.9
	c-2.747-2.383-3.974-1.508-5.623-5.076c-3.298-7.134-3.757-6.45-11.789-7.036c-6.919-0.504-12.58-1.238-19.699-0.526
	c-9.685,0.969-21.931,1.975-30.859-2.853c-8.263-4.467-13.96-7.057-23.887-6.732c-6.214,0.203-13.895,2.464-18.518-2.908
	c-3.325-3.865-4.344-7.073-9.122-9.982c-3.895-2.37-8.181-3.481-12-5.974c-5.554-3.625-7.067-6.512-14.106-4.562
	c-6.911,1.915-12.859,6.935-20.242,6.94c-6.869,0.005-11.2,2.18-18.01,3.729c-2.799,0.636-5.643-0.604-8.053-0.115
	c-5.977,1.213-14.399,10.328-18.514,14.605c-7.588,7.888-15.278,16.834-25.286,22.039
	C252.956,217.439,246.28,221.299,245.384,231.189z"/>
</svg>
