<?xml version="1.0" encoding="utf-8"?>
<!-- Generator: Adobe Illustrator 14.0.0, SVG Export Plug-In . SVG Version: 6.00 Build 43363)  -->
<!DOCTYPE svg PUBLIC "-//W3C//DTD SVG 1.1//EN" "http://www.w3.org/Graphics/SVG/1.1/DTD/svg11.dtd">
<svg version="1.1" id="图层_1" xmlns="http://www.w3.org/2000/svg" xmlns:xlink="http://www.w3.org/1999/xlink" x="0px" y="0px"
	 width="699.75px" height="700px" viewBox="0 0 699.75 700" enable-background="new 0 0 699.75 700" xml:space="preserve">
<path fill="#FFFFFF" d="M205.702,181.5c-5.257,0.013-10.253-0.095-15.344,1.417c-3.605,1.071-6.32,3.341-9.615,4.917
	c-3.984,1.906-8.559,2.308-12.627,3.75c-4.456,1.579-7.436,5.394-11.157,8.184c-3.713,2.785-7.792,3.887-11.585,6.815
	c-5.745,4.436-9.249,10.376-13.332,16.267c-2.497,3.602-5.779,6.618-8.408,9.91c-3.657,4.579-6.452,10.74-9.673,15.766
	c-2.956,4.612-1.644,6.099,1.413,10.383c4.076,5.713,3.048,10.764,3.075,17.533c0.009,2.137-0.072,4.59,0.333,6.708
	c0.694,3.624,3.868,4.759,5.525,7.644c1.595,2.775,2.775,6.127,4.4,9.043c2.173,3.898,4.862,8.078,6.69,12.095
	c1.751,3.849,0.562,7.828,0.717,11.912c0.097,2.556,0.438,4.515-0.401,6.983c-1.069,3.145-2.804,5.753-3.672,9.015
	c-0.464,1.743-1.251,3.877-1.342,5.658c-0.121,2.397,1.454,4.021,1.69,6.268c0.433,4.103-2.186,9.529-2.934,13.641
	c-0.833,4.58-0.679,9.1-1.333,13.685c-1.193,8.352-6.916,13.354-0.007,20.39c2.296,2.338,4.499,4.03,5.925,6.943
	c1.268,2.59,2.88,6.217,5.037,8.175c2.16,1.961,5.222,2.573,7.484,4.396c3.237,2.608,3.793,7.206,8.813,7.011
	c6.473-0.252,12.894-6.812,18.943-9.019c3.209-1.171,6.083-1.696,9.362-0.498c6.11,2.23,10.634,5.156,13.263,11.2
	c1.584,3.643,3.326,7.232,5.181,10.754c1.644,3.121,3.369,6.004,4.75,9.25c1.18,2.773,3.099,4.895,3.218,8.009
	c0.103,2.687,0.251,5.473,0.301,8.197c0.123,6.645-1.51,13.267-3.275,19.625c-1.491,5.371-1.055,11.489-3.731,16.481
	c-1.729,3.225-4.925,7.342-4.518,11.103c0.394,3.633,2.698,6.918,4.323,10.091c2.128,4.153,2.691,7.354,3.745,11.8
	c1.818,7.67,8.082,13.369,14.843,16.892c6.653,3.466,15.046,5.773,22.27,7.797c4.41,1.235,8.175,2.443,12.256,4.507
	c6.387,3.23,12.962,4.973,20.118,4.306c10.46-0.975,20.958-1.055,31.444-1.445c10.321-0.385,20.51-0.822,30.824-0.048
	c16.109,1.21,34.873-0.953,48.695-10.02c4.75-3.116,9.725-6.643,14.686-9.374c8.466-4.661,14.691,2.515,22.803,3.393
	c8.037,0.87,16.482-2.064,23.806-4.931c6.855-2.683,13.425-6.155,20.567-8.059c4.132-1.102,8.281-2.233,12.529-2.791
	c2.101-0.275,4.244-0.449,6.362-0.28c2.228,0.179,2.876-0.16,4.869-0.55c6.613-1.293,12.582,5.412,19.115,3.554
	c7.908-2.25,13.432-8.652,18.988-14.006c2.604-2.508,5.778-3.23,8.763-5.188c4.572-2.998,8.761-8.991,10.261-14.212
	c1.455-5.065,0.068-8.708-1.199-13.545c-1.155-4.41-1.69-8.271-3.382-12.498c-0.481-1.203-1.046-2.344-0.947-3.671
	c0.175-2.362,2.208-4.228,2.347-6.528c0.124-2.064-1.187-4.705-1.775-6.802c-0.623-2.222-1.51-4.27-2.116-6.5
	c-1.156-4.25-2.914-6.394-6.925-8.5c-4.567-2.398-8.175-1.414-12.877-1.75c-3.602-0.257-7.983-1.456-9.336-5.232
	c-0.712-1.987-1.267-6.167-1.069-8.28c0.707-7.547,5.683-15.161,13.951-13.293c2.357,0.532,4.574,1.463,6.806,2.018
	c6.787,1.688,13.467-5.497,17.149-10.013c2.864-3.512,5.754-8.294,7.063-12.693c1.649-5.542,3.901-10.296,6.799-15.316
	c2.024-3.506,2.487-6.527,1.932-10.489c-0.418-2.982-1.085-4.762-2.686-7.199c-2.219-3.377-1.458-9.173-1.636-13.084
	c-0.25-5.498-0.784-10.979-1.068-16.475c-0.167-3.222-0.249-6.451-0.138-9.676c0.108-3.159,1.078-6.598,0.854-9.717
	c-0.144-1.984-1.043-3.056-0.384-5.105c0.757-2.357,2.848-4.162,4.083-6.255c1.79-3.031,2.673-7.46,3.293-10.926
	c1.105-6.172-2.497-11.798-1.943-18.212c0.778-9.011,5.854-16.78,9.096-25.014c3.381-8.591,3.173-18.112-0.206-26.787
	c-1.732-4.449-1.302-7.91-1.689-12.556c-0.472-5.651-5.726-11.127-9.922-14.453c-5.438-4.31-12.772-4.483-18.278-8.68
	c-4.39-3.346-7.738-7.172-11.293-11.369c-3.471-4.097-7.585-6.78-10.507-11.205c-1.597-2.419-2.708-5.68-4.694-7.801
	c-1.682-1.795-3.6-2.849-5.756-3.999c-5.521-2.945-7.491-9.721-13.487-12.702c-6.582-3.273-13.748-4.92-20.425-7.896
	c-4.315-1.924-7.42-5.585-11.763-7.401c-12.98-5.427-30.107-4.163-43.055,0.477c-8.186,2.934-14.346,2.618-22.901,1.083
	c-7.157-1.285-14.415-1.624-21.671-1.293c-6.086,0.277-12.395-0.023-18.354,0.979c-9.783,1.646-19.626,4.68-29.39,5.991
	c-8.56,1.149-17.613,1.914-26.351,1.99c-6.184,0.054-11.857,0.184-17.242,3.341c-5.358,3.142-9.537,7.627-14.668,10.984
	c-5.663,3.705-11.038,1.85-16.925,4.081c-6.649,2.52-12.303,10.532-16.399,16.169c-3.716,5.113-8.064,10.832-13.62,14.049
	c-2.992,1.732-4.575,1.444-7.705,1.136C215.258,181.487,210.307,181.489,205.702,181.5z"/>
</svg>
