<?xml version="1.0" encoding="utf-8"?>
<!-- Generator: Adobe Illustrator 14.0.0, SVG Export Plug-In . SVG Version: 6.00 Build 43363)  -->
<!DOCTYPE svg PUBLIC "-//W3C//DTD SVG 1.1//EN" "http://www.w3.org/Graphics/SVG/1.1/DTD/svg11.dtd">
<svg version="1.1" id="图层_1" xmlns="http://www.w3.org/2000/svg" xmlns:xlink="http://www.w3.org/1999/xlink" x="0px" y="0px"
	 width="699.75px" height="700px" viewBox="0 0 699.75 700" enable-background="new 0 0 699.75 700" xml:space="preserve">
<g>
	<path fill="#FFFFFF" d="M278.618,243.639c-2.112,4.64-3.081,10.247-2.91,13.861c0.489,9.861-4.57,17.83-6.406,27.176
		c-2.131,10.856-13.918,4.944-20.654,2.247c-6.031-2.415-9.836-5.381-16.404-6.051c-6.061-0.619-10.277-5.103-16.188-0.452
		c-6.769,5.326-9.814,13.739-9.431,22.201c0.018,0.4-0.827,1.854-0.893,2.509c-0.137,1.357,0.561,3.801,0.846,5.159
		c0.859,4.083,2.484,7.944,4.539,11.568c1.228,2.166,2.484,3.246,4.666,4.391c1.263,0.663,4.346,1.102,5.28,2.169
		c2.746,3.132,0.368,8.888,2.94,12.635c4.169,6.072,10.986,14.996,8.122,22.825l-2.625,7.25c0,0-5.746,5.371-4.126,10.619
		c1.813,5.876,3.423,8.607,8.011,13.041c3.897,3.765,10.038,5.745,13.504,9.625c3.227,3.611,3.308,9.586,3.486,14.097
		c0.179,4.548,2.023,7.032,5.749,9.676c3.068,2.178,2.307,2.134,3.894,5.398c1.927,3.966,5.241,7.062,7.107,11.169
		c0,0,1.75,6.625,3.875,9.75c0,0,4,7,5.125,9c0.25,0.5,3.5,13.75,20.125,11.5c0,0,4.625,0.625,6.625,1.5
		c0.375-0.25,11.125,4.375,13.875,2.5c0,0,3.125,1.125,7.125,1.5c0,0,9.5-1.125,13.625,0.125c0,0,5.998,2.999,12.371,0.876
		c2.151-0.716,3.772-1.662,5.721-2.998c3.438-2.354,7.799-2.452,10.784-5.364c3.355-3.272,6.837-12.341,11.241-13.927
		c3.433-1.236,4.066,1.313,6.813-1.678c1.775-1.934,2.599-4.594,4.771-6.168c2.993-2.17,6.044,0.021,8.962-2.462
		c3.627-3.087,6.652-5.154,10.925-7.211c3.988-1.919,7.448-5.319,12.042-5.692c1.868-0.151,3.031-0.087,4.308-1.503
		c0.884-0.98,0.784-2.426,1.877-3.31c2.077-1.681,5.253,0.454,7.299-0.928c1.555-1.051,1.882-3.121,3.154-4.415
		c2.034-2.069,3.347-0.125,5.043-2.63c1.081-1.599,1.88-4.252,2.071-6.178c0.137-1.371-0.277-2.67,0.401-3.849
		c1.093-1.901,3.463-2.568,4.333-4.64c0.392-0.929-0.021-1.897,0.3-2.82c0.504-1.454,1.753-2.802,2.71-3.979l6.5-8
		c0,0,17.75-19.25,21.5-32.25c0,0,2.251-4.5,6.417-8.833c2.771-4.454,5.75-9.412,7.067-14.504c0.59-2.28,0.803-4.186,2.215-6.165
		c2.008-2.813,4.747-4.741,5.75-8.231c1.114-3.877,2.078-9.98,2.049-14.022c-0.027-3.902-1.479-5.095,0.484-9.029
		c4.001-8.014,8.71-18.113,6.278-27.286c-0.902-3.404-2.307-7.482-5.341-9.447c-1.458-0.944-3.16-1.341-4.497-2.504
		c-1.166-1.014-1.716-2.519-3.163-3.241c-1.862-0.93-4.686-1.182-6.729-1.487c-5.019-0.75-9.847-2.83-14.625-4.46
		c-2.74-0.935-7.216-2.449-8.229-5.445c-0.69-2.04,0.244-2.405-2.251-3.67c-1.404-0.712-3.063-0.882-4.434-1.662
		c-4.294-2.448-7.53-1.309-12.486-0.026c-2.468,0.639-4.795,1.869-7.358,2.154c-3.153,0.351-4.205-1.776-7.097-1.977
		c-5.272-0.364-8.816-3.33-14.297-1.231c-2.129,0.815-4.805,2.367-6.973,0.892c-0.811-0.551-1.04-1.651-1.756-2.314
		c-0.813-0.753-2.043-0.989-2.896-1.756c-2.347-2.111-1.756-5.451-3.519-7.688c-2.507-3.182-5.809,0.657-8.917-0.302
		c-2.427-0.748-1.733-1.161-2.182-3.452c-1.148-5.876-5.763-6.532-10.819-7.375c-3.207-0.535-6.354-0.797-9.487-1.689
		c-3.718-1.059-8.628-1.757-11.876-3.51c-3.678-1.986-5.712-3.094-10.136-2.494c-3.272,0.444-5.71,1.544-8.715,2.757
		c-3.907,1.577-8.08,2.58-12.253,3.122c-3.38,0.439-7.621-0.558-10.738,0.933c-1.334,0.638-1.969,2.213-3.24,2.881
		c-2.057,1.08-4.565,0.602-6.698,1.258c-1.451,0.446-2.339,1.503-3.801,2.125c-3.92,1.667-6.691,1.148-10.127,4.242
		c-1.757,1.582-3.321,3.425-5.193,4.876C286.13,236.754,281.462,237.392,278.618,243.639z"/>
	<path fill="#FFFFFF" d="M121.25,250.5c0,0-11.541,1.333-9.208,9c0,0,4.333,9.667,10,8.333c0,0,3.333-5.333,1.833-10.333
		l-0.333-4.833L121.25,250.5z"/>
	<path fill="#FFFFFF" d="M121.625,451.25c0,0,3.75-2.125,5,1l-0.5,2.625l-2.813,0.313l-1.688-1.813V451.25z"/>
	<path fill="#FFFFFF" d="M581.375,261.833c0,0-4.667,0.166-3.5,6.333c0,0-1.667,2.667-0.5,3.833s3.333,2.833,3.833,3.5
		s5.334,0.167,5.334,0.167l3.166-5c0,0-0.5-4.833-1-5.167s-5.166-3.333-5.166-3.333L581.375,261.833z"/>
	<path fill="#FFFFFF" d="M583,434.75c-0.625-0.125-2.75,0-2.75,0l-2-1h-0.625l-1.625,3c-0.75,0.25-2.375-0.625-2.125,0.375
		S574.375,439,575,439s1.5,0,1.5,0.375s1.5,2.875,1.5,2.875s3.125-0.375,3.125-0.75s0.75-3.25,1.25-2.75s1.125,0.125,1.125,0.125
		S583.625,434.875,583,434.75z"/>
</g>
</svg>
