<?xml version="1.0" encoding="utf-8"?>
<!-- Generator: Adobe Illustrator 14.0.0, SVG Export Plug-In . SVG Version: 6.00 Build 43363)  -->
<!DOCTYPE svg PUBLIC "-//W3C//DTD SVG 1.1//EN" "http://www.w3.org/Graphics/SVG/1.1/DTD/svg11.dtd">
<svg version="1.1" id="图层_1" xmlns="http://www.w3.org/2000/svg" xmlns:xlink="http://www.w3.org/1999/xlink" x="0px" y="0px"
	 width="699.75px" height="700px" viewBox="0 0 699.75 700" enable-background="new 0 0 699.75 700" xml:space="preserve">
<g>
	<path fill="#FFFFFF" d="M467.688,160.188c-0.063-0.188,1.313-4.438-2-4.5c0,0-11-2.25-12.313,2.063c0,0-0.563,1.438-0.188,2.625
		c0,0-0.438,1.188-1,1.188c0,0-5.75,1.375-7.438,3.75c0,0-2.313,4.688-0.125,6.375l3.063,3.063c0,0,4.563,6.125,7.688,6.25
		c0,0,3.5,1.938,6.563-0.938l3.25-3.563l5.313-5.313l1.688-2.375c0,0,0.125-4.063-1.75-5.875l-0.688-1.563L467.688,160.188z"/>
	<path fill="#FFFFFF" d="M563,271.125l-8.5-1.625l-4.625-0.5c0,0-2.125-1.375-2.5-1.75s-5.375-2-5.375-2l-3.75-1l-3.25-0.625
		c0,0-2,0-2.375,0.5s-0.75,4.5-0.75,4.5L535,273.5l3,3.375c0,0,1.5,1.5,6.875,0.5c0,0,4.875,0.75,6.375,3.5c0,0,4.75,4.5,10.5,3
		l3.625-0.25c0,0,2.5-5.625,1-10.125L563,271.125z"/>
	<path fill="#FFFFFF" d="M536.375,422.5c-0.512,0.063-6.125,0.5-4.625,3.75c0,0,4.5,8.875,9.25,9c0,0,6.375-0.875,8.625,0.75
		c0.25,0.125,2.75,4.75,7.5,3.25l2.625-3.125l-1.625-6.5c0,0-6.125-5.25-15.125-5.375C543,424.25,538.375,422.25,536.375,422.5z"/>
	<path fill="#FFFFFF" d="M425.125,531.875c-0.25,0.375-3.75,4,0.75,8.75l7.75,6.25l0.625,3c0,0,2.875,3.125,3.5,3.375
		s10.25,0.875,10.25,0.875l2.625-2.625l-1.375-4.375l-4.875-3c0,0-3-1.25-3.375-1.625s-4.25-5.125-4.5-5.5s-2.5-3.625-2.875-3.5
		s-7.375-2.5-7.375-2.5L425.125,531.875z"/>
	<path fill="#FFFFFF" d="M370.875,454.25c-0.5-0.125-5.375,0.75-5.75,1.375s-2.375,3.375-2,3.375s5.75,0.5,5.75,0.5
		s4.125-0.5,3.75-1.25S370.875,454.25,370.875,454.25z"/>
	<path fill="#FFFFFF" d="M419.334,274.667c0,0-9,2-19-6l-14-9c0,0-13.334-9.333-21.334-8.333c-1.333-0.333-12.333-9-13.333-9.333
		s-7-11.667-30,10c0,0-16.334,8.333-17.667,9.333c0,0-13,8.333-7.333,15.667c0,0,5.667,8,3.667,14c0,0-13,19-13.333,35.667
		c0,0-4,16.667-14.667,15.667c0,0-17.333,1.667-17,9c0,0,0,5.333,8.333,13c0,0,5,6.667,3.667,19c0,0-9.333,22.333,11.667,39.667
		c0,0,32,30.333,45.667,27.667l26-6c0,0,13,2.667,21-6.333l17.333-13c0,0,7.666-9-5.667-21.667c0,0-7.666-17.667-0.666-20.667
		c0,0,12-0.667,22.333,3.667c0,0,26.667,0,44.667-23.333L465.334,348l7.333-41.333c0,0-14-28.333-34-31
		C437,275.667,419.334,274.667,419.334,274.667z"/>
	<path fill="#FFFFFF" d="M272.667,156c0,0-10.666-4.333-10.333-1l0.667,5.5l3.167,3.167l5.667-2.5L272.667,156z"/>
	<path fill="#FFFFFF" d="M139.833,265.667c0,0-1.667-2.5-3.333-3.5c0,0-2.167-5,0-5.5l3.333,1.667c0,0,3,0.833,4.667,3.333
		l3.333,2.333c0,0,0.667,2.333,3.667,3.5c0,0,5.167,0.167,7,2.833c0,0,5.667,8.833,4.667,12.333c0,0-9.333,1.5-19.333-7.333
		L141,271.5L139.833,265.667z"/>
	<path fill="#FFFFFF" d="M148.167,440c0,0,0.667,0.167,3.333-2.833l2-3.5l1.333-4c0,0,1.333-5.833,5-6.333c0,0,4.667-1,6,1.667
		c0,0,0.833,5.167-1.667,8.083l-0.75,2.167l-1.583,0.583l-0.75,2.083c0,0-0.667,0.583-5.583,6.917c0,0-3.333,5-5.583,6
		c0,0-3.417,0.5-7.5-0.667c0,0-2.333-0.667-0.75-2.083c0,0,2.25-0.75,2.25-1s1.167-2.583,1.167-2.583S146.917,440.167,148.167,440z"
		/>
	<path fill="#FFFFFF" d="M239,540.833l-2.167,0.417c0,0-2.25,3.25-3.333,2.625c0,0-0.958,0.75-1,0.458s-0.167-1.292-0.167-1.292
		l-1.667,0.333c0,0-1.25-5.708,0.375-6.292l0.833-0.167c0,0-0.167-2.792,2.583-4.208l2.458-2.125c0,0,2.458-2.5,3.708-4.708
		c0,0,2.125-2.583,4.208-2.458c0,0,5.375-1.292,6.583,0.5c0,0,1.125,4.042-0.458,5.708c0,0-0.958,0.667-0.958,0.833
		s-0.333,1.917-0.333,1.917s-2.75,1.583-2.75,1.792s-0.208,2-0.208,2l-2.083,0.208l-0.458,1.167c0,0-1.542-0.208-1.542-0.083
		s-0.875,1.75-0.875,1.75l-1.083,0.25l-0.25,1.042l-0.792,0.542L239,540.833z"/>
	<path fill="#FFFFFF" d="M441.125,162.438c0,0,2.875-3.688,0.813-7.063c0,0-8.313-5.625-12.75,0.625l0.25,7.875l-1,0.313
		c0,0-1.188,3.688,1.125,4.188c0,0,4.313,1.063,6.25-1.125l0.688-1.313l1.938-1.125l1.75-1.438L441.125,162.438z"/>
</g>
</svg>
