<?xml version="1.0" encoding="utf-8"?>
<!-- Generator: Adobe Illustrator 14.0.0, SVG Export Plug-In . SVG Version: 6.00 Build 43363)  -->
<!DOCTYPE svg PUBLIC "-//W3C//DTD SVG 1.1//EN" "http://www.w3.org/Graphics/SVG/1.1/DTD/svg11.dtd">
<svg version="1.1" id="图层_1" xmlns="http://www.w3.org/2000/svg" xmlns:xlink="http://www.w3.org/1999/xlink" x="0px" y="0px"
	 width="699.75px" height="700px" viewBox="0 0 699.75 700" enable-background="new 0 0 699.75 700" xml:space="preserve">
<g>
	<path fill="#FFFFFF" d="M321.667,232c0,0-11-12.333-19-2.333c0,0-1.834,4.167,2.833,6.833c0,0,5.334,2.5,6.167,6.333
		c0,0,0.833,1.5,0.5,7.833c0,0-0.167,3.333,3.333,8.333c0,0,2.334,4.333,2.667,8.333c0,0,0.833,4.167,4.708,4.167
		c0,0,4.125,0.417,3.708-7.25c0,0,0.417-4.75-2.833-13.417c0,0-2.333-4.083,0.083-7.333c0,0,1.833-1.583,2.167-3.167
		c0,0,3.167-1.833,7.833,1c0,0,2.833,3.166,5.583,1.333v-1.417c0,0,2.167-0.667,0.667-1.917l-0.75-2c0,0-1.5-4.167-0.75-8.25
		c0,0-1.084-5.417-6.417-4.25c0,0-4.917,0.083-8.75,7.25C323.417,232.083,322.583,233.333,321.667,232z"/>
	<path fill="#FFFFFF" d="M384.875,226.125c0,0-9.25,1.125-14.75,16.75c0,0.125-2.25,8.25-3.5,13.625c0,0-1.5,3.625-4.625,6
		c0,0-1.875,6.625,1.875,8.625c0,0,1.625,2.375,3.75,0.125c0,0,2.75-2.5,4.125-5.75c0,0,0.375-1.625,0.75-6.5
		c0,0,0.625-1,2.875-2.75c0,0,7.5-8.25,9.25-15.875c0,0-1.25-2.375,0-4.5C384.625,235.875,389.75,225.625,384.875,226.125z"/>
	<path fill="#FFFFFF" d="M267,300.5c0,0-5-4.917-12.417-6.667c0,0-9,1.5-10.25,5.583c0,0-5.333,0.334-8.167-1.083
		c0,0-5.417,1.167-5.167,6.5c0,0-0.583,5.833,5.333,5.5c0,0,4.667-0.167,8-3.333c0,0,6.229-0.313,9.229,0.875
		c0,0,3.063,1.313,3.5,0.625l0.563-1.25c0,0,1.813-0.438,3.938,1.188c0,0,7.188,3.938,9.813,3.938c0,0,5.125,0.875,4.688-3.5
		c0,0-1.5-7.313-6.063-8.563C270,300.313,269.625,298.375,267,300.5z"/>
	<path fill="#FFFFFF" d="M265.75,330.583c0,0-1.25-8.25-7.417-7c0,0-7.417,0.333-10.667,12.333c0,0,1.083,1.333-5.083,4.75
		c0,0-6.917,4.75-9.5,16.833c0,0-1.083,2.167-5.417,5.833c0,0-4.167,4.042-3.417,9.542c0,0,0.5,5.875,3.75,5.5
		c0,0,2.125,0.875,4.5-2.125l5.625-9.125c0,0,2.25-1.5,4.75-9.75c0,0,2-6.5,5.125-9.25c0,0,3.5-3.375,7.125-7.5
		c0,0,3.5-0.75,7.625-0.75c0,0,2.875,0.5,3.375-2C266.125,337.875,266.875,334.792,265.75,330.583z"/>
	<path fill="#FFFFFF" d="M260,351.063c0,0-2.375-1.875-5.438,2.188c0,0-0.375,1.188-2.5,3.188c0,0-1.125,3.688,0.688,5.313
		c0,0,0.375,1.5,0.125,2.813c0,0,0,4.063,5.188,1.75l0.438,0.5l3.75-0.188l0.438-1.188c0,0,2.125-1.188,2.313-3.438
		c0,0-0.063-3-0.063-3.25s0.125-3.5,0.125-3.5l-1-1.438C264.063,353.813,263.125,350.563,260,351.063z"/>
	<path fill="#FFFFFF" d="M282.75,320.188c-0.128,0.358,0.625,3.875,4,4.875l0.625,1.125l0.063-2.313l-2.375-3.313
		C285.063,320.563,283.375,318.438,282.75,320.188z"/>
	<path fill="#FFFFFF" d="M357.583,291.917c-0.181,0.191-2.417,1.5-4.333,0c0,0-7-11-10.75-8.333c0,0-6.75,2.5-8.25,8.75
		c0,0-0.917,7.75,1.333,10.833c0,0,1.5,4.416-0.167,8.083c0,0-1.833,0.75-5.583,4.25c0,0-23.583,18.084-23.333,30.667
		c0,0-0.75,4.208,0.125,15.958c0,0,0.25,5.875-4,14.75c0,0-6.375,8.625-2.75,16.125c0,0,0.5,2.625,3.375,5.75c0,0,0.5,2-1.375,6.25
		c0,0-3.375,6.75,0.875,10.375c0,0,3.625,4,5.75,3.75c0,0,1.375,0.25,0.875-1.625c0.5-0.25,5.125,0.5,6.125-2
		c0,0,0.625-6.75-0.125-14c0.25-0.375,0.625-4.25,5.125-5.125c0,0,6-1.25,9.625,1.125c0,0,3.25,4.5,5.25,7
		c0.25,0,3.75,2.125,5.625-0.25l5-8.375c0,0-0.375-1.25,1.125-3.5s6.375-5.125,10.5-8c0,0,3.375-2.5,6.125-12.625
		c0,0,1.125-3.5,8.125-6.25c0,0,6.125-3,10.625-9c0,0,5.875-3.75,9.25-4.875c0,0,8.125-4.125,11.125-8.5c0,0,2.375,0.125,3-1.625
		c0,0,1.875-1.125,0.125-5.5c0,0-3.125-4.125-4.75-7.375c0,0-1.25-5,1.875-6.25c0,0,6.875-1.25,10.875-0.25c0,0,4-0.75,3.375-5.125
		c0,0,1.5-6-4.75-6.75c0,0-6.5,0.375-15.375,2c0,0-2.875,0.125-4.5-2.375c0,0-16-20.25-27-21.25
		C365.75,288.625,362.167,287.083,357.583,291.917z"/>
	<path fill="#FFFFFF" d="M319.625,437c0,0-2.292,0.083-1.625-5c0,0-0.75-5.667-6.417-4.333c0,0-2.25-1.833-3.833,2.167l-0.333,1.417
		c0,0-0.167,1.417,1.25,2c0,0,0.666,2.25,3.333,5.583c0,0,3.25,6.167,2.25,9.417c0,0,0.417,0.25-3.667,1.667
		c0,0-15.333,5.167-11.5,12.583c0,0,1.583,4.333,5.25,3.333c0,0,1.417,1.083,6-4.667c0,0,6.083-6.083,9.417-7.667
		c0,0,4.25-2.5,4.5-5.417c0,0-0.417-1.333,0.25-2.25C324.5,445.833,327.083,439.333,319.625,437z"/>
	<path fill="#FFFFFF" d="M385.833,459.417c-0.256-0.438-0.667-5.583,3-8.833c0,0,2.584-4.167-2.333-10.167c0,0-4.167-5.833-5-7.417
		c0,0-3.75-5.083-8.167-3.833c0,0-2.167,1.917-1.083,4.5c0,0,4,4,5.75,6.667c0,0,1.251,3.667-0.416,9.333c0,0-3.333,10.5-1.5,16.583
		c0,0,1.917,5.917,6.25,4.583c0.25-0.083,4.5,0.25,5.833-3.667C388.167,467.167,388.416,463.833,385.833,459.417z"/>
	<path fill="#FFFFFF" d="M417.75,339.125c0,0-9.625,3.5-9.5,9.375c0,0,4,11,10,12.625c0.5-0.125,5.625,4.875,10.625-6.75
		c0,0,1.25-2.375,1.25-2.875s0.25-2.875,0.25-2.875s-1.625-4-2-4.25s-2.875-3.25-3.375-3.625s-5.25-1.625-5.25-1.625H417.75z"/>
	<path fill="#FFFFFF" d="M465.5,298.25c-0.33-0.307-4.75,2.75-8.875,2.875c0,0-11.875-0.5-11.625,11.75c0,0,1.375,11-2.625,13.875
		c0,0-11.25,4.25-9.5,9.375c0,0,2.375,5.75,9.75,5c0.125,0.375,0.25,1.5,0.625,1.25s4.5-5.75,4.5-5.75s2.875-2.625,5.125-4.875
		c0,0,1.5-0.375,2.75-7c0,0,1.75-9.25,4.75-11.5c0,0,5-2.625,6.5-7.125C466.875,306.125,469.125,301.625,465.5,298.25z"/>
	<path fill="#FFFFFF" d="M461.333,395.833c0,0-5.832-1.333-12.666-0.167c0,0-3.501-1-7.334-3.5c0,0-6.333-4.833-10.333-9.5
		c0,0-3.167-1.833-6,1.167c0,0-2.667,2.833-1,5.167c0,0,3.5,5,4.5,6.167c0,0,2.501,2.333,6.167,3c0,0,7.5,5.333,9,7.667
		c0,0,4.667,3.167,10,2l5.166-1.333c0,0,4-1.667,4.167-4.5C463,402,463.166,394.167,461.333,395.833z"/>
</g>
</svg>
