<?xml version="1.0" encoding="utf-8"?>
<!-- Generator: Adobe Illustrator 14.0.0, SVG Export Plug-In . SVG Version: 6.00 Build 43363)  -->
<!DOCTYPE svg PUBLIC "-//W3C//DTD SVG 1.1//EN" "http://www.w3.org/Graphics/SVG/1.1/DTD/svg11.dtd">
<svg version="1.1" id="图层_1" xmlns="http://www.w3.org/2000/svg" xmlns:xlink="http://www.w3.org/1999/xlink" x="0px" y="0px"
	 width="699.75px" height="700px" viewBox="0 0 699.75 700" enable-background="new 0 0 699.75 700" xml:space="preserve">
<g>
	<path fill="#FFFFFF" d="M123.375,245.5c0,0-3.75,1.5-2.125,5c0,0,2.875,4,3.542,6.25c0.167,0.083,1,2.334,1.083,6.667
		c0,0-0.688,11.646,6.125,12.833l3,0.563c0,0,2-0.313,3.625-2.5l1.125-1.063l0.438-2l-1.063-3.375l-1.125-3.25
		c0,0-1.75-5-4.938-9.063l-3.125-3.313l-3.375-3.75L123.375,245.5z"/>
	<path fill="#FFFFFF" d="M239.875,302.375c0,0-3.625-2.5-7.5,1.125l-2.75,3.75l-1.5,3.25c0,0-1.625,4.375,2.75,8.25
		c0,0,0.875,1,1.438,3.875l1.125,2.625c0,0,1.104,8,4.438,14.583c-0.083,0.083,2.417,6.25,2.5,6.667s3.833,8.333,7.083,11.083
		c0,0,1.25,4.667,0.917,8.167c-0.083,0.25,1.333,3,1.333,3s0.583,13.001-0.667,16.334c0,0-0.667,3.332,1.083,4.916
		c0,0,0.417,4.499,1,5.083s4,7.166,4.083,7.5s3,6.334,3.333,6.584s3.25,6.25,3.25,6.5s2.167,6.75,2.917,7.5s3.667,4.168,4.083,4.584
		s8.75,8.583,11.417,13.25c0,0,11.833,15.499,24.667,17.833l5,1.583c0,0,12.25,3.668,15.5,4.334c0,0,6.834,1.916,20.667-4.084
		l10.5-2.667c0,0,6-1,13.5-7l10.333-6.5l6.5-5l9-5.167c0,0,5.167-6.666,8.5-8.333c0,0,3.833-1.668,8.333-2.334
		c0,0,14.5-4.666,19-12.666l0.834-5.334v-7c0,0,1.5-7,10-9.833c0,0,12.001-10,21.167-24l5.333-5.167l4.167-8l4.333-6.167
		l3.333-3.833c0,0,1.334-0.667,1.667-9.333l2-6.5l2.5-8.167l2.5-12.5l1.666-7.667l2.5-8c0,0,1.167-6.667-6.333-11l-7.5-4.833
		c0,0-9.666-2.5-14.833-6.5c0,0-14.5-9.167-19.5-8.667c0,0-20.334-1-28.834-1.5c0,0-3.667,1.333-11.833-4.167
		c0,0-8.166-8.5-16.833-10.833c0,0-8.001-2-9.667-3.5c0,0-15.166-5.5-20.833-9.333c0,0-1.5-6.333-21.833-1.5
		c0,0-7.167,1.667-17.667,8.167c0,0-7.5,4-11.333,4.833c0,0-19.167,8.5-19,18.167c0,0-0.167,7.5,1.667,11.333l1,6.167
		c0,0-0.25,6.542-7,13.167c-0.5,0.125-3.75,5.75-3.125,8l-2.875,5.75c0,0-6,5.25-6,5.75s-2.25,6.375-2.25,7s-1.375,4-1.75,4.125
		s-4-0.125-4-0.125s-2.75-3-3.375-3.375S239.875,302.375,239.875,302.375z"/>
	<path fill="#FFFFFF" d="M146.875,439.5c-0.995,0.1-7.75,3-7.75,3l-8.75,3c0,0-6.125,7.125,1.625,8.75c0,0,3.25,1.75,8.375-0.875
		l3.375-1.625L146,448l1.75-4C147.75,444,150.625,439.125,146.875,439.5z"/>
	<path fill="#FFFFFF" d="M237.375,533.75c-0.359,0.166-2.75,3-7.5,3.5c0,0-8.25,1.25-4.625,10.625c0,0,0.875-0.25,0.75,0.25
		s0.625,5.25,6.75,4.625c0,0,3.625,0.375,4.625-2.5c0,0,0.625-2.25-0.375-4.125l0.25-5.25l2-1.375l-0.25-2.25
		C239,537.25,240.625,532.25,237.375,533.75z"/>
	<path fill="#FFFFFF" d="M559.75,264.25c0,0-2.25-1.375-1.875,2.75c0,0,3.5,10.625,10.625,11.75c0,0,5.125,2.875,10.875-0.5
		c0,0,0.75-2.25,2.375-3c0,0,1.875-1,0.25-6.625c0,0-0.75-1.5-7.5-1.625l-6.25-0.75L564.5,265L559.75,264.25z"/>
	<path fill="#FFFFFF" d="M569.875,430.75c0,0-8.25-3.25-10.625-5.375c-0.125-0.5-5.25-1.5-7.5,1c0,0-0.875,1.75,5,3.75
		c0,0,3.875,3.75,6,8c0,0,7.625,10.125,14.625,7.625c0,0,0.75-1.625,0.5-2.375S576,436.375,569.875,430.75z"/>
	<path fill="#FFFFFF" d="M481.125,157.875c0,0-1.125-4.5-6.625-2.625c0,0-5,0-5.375-0.25s-2.25-1.125-1.375,1
		c0,0,4.125,8.625,9.375,8.125C477.125,164.125,481.5,163.375,481.125,157.875z"/>
</g>
</svg>
