<?xml version="1.0" encoding="utf-8"?>
<!-- Generator: Adobe Illustrator 14.0.0, SVG Export Plug-In . SVG Version: 6.00 Build 43363)  -->
<!DOCTYPE svg PUBLIC "-//W3C//DTD SVG 1.1//EN" "http://www.w3.org/Graphics/SVG/1.1/DTD/svg11.dtd">
<svg version="1.1" id="图层_1" xmlns="http://www.w3.org/2000/svg" xmlns:xlink="http://www.w3.org/1999/xlink" x="0px" y="0px"
	 width="699.75px" height="700px" viewBox="0 0 699.75 700" enable-background="new 0 0 699.75 700" xml:space="preserve">
<path fill="#FFFFFF" d="M202.61,123.716c-0.537,0.15-1.079,0.287-1.624,0.409c-9.939,2.224-21.563,2.635-29.865,9.229
	c-4.778,3.796-5.581,8.43-8.438,13.281c-3.093,5.25-9.172,8.39-14.308,11.238c-7.571,4.199-14.792,8.29-21,14.266
	c-8.21,7.904-17.582,13.885-25.998,21.347c-10.797,9.572-13.423,26.753-21.002,38.651c-4.815,7.559-5.899,13.632-7.363,22.361
	c-1.66,9.898-2.257,19.688-0.353,29.623c1.931,10.075,5.499,19.812,6.728,30.026c1.196,9.949,2.859,19.866,3.488,29.832
	c0.65,10.293,4.413,23.381,1.024,33.408c-2.58,7.635-6.27,11.95-6.024,20.613c0.475,16.713,13.013,27.989,23.526,39.375
	c8.538,9.247,19.458,13.872,30.976,18.612c5.642,2.322,11.505,5.37,15.998,9.487c11.876,10.88,7.048,28.191,2.1,41.172
	c-1.518,3.982-4.333,9.695-4.111,13.842c0.3,5.606,5.899,9.599,9.135,13.512c3.05,3.689,5.433,7.994,7.85,12.015
	c4.433,7.374,6.578,18.382,12.518,24.511c4.045,4.175,10.356,7.317,14.895,10.971c8.974,7.225,16.25,7.693,26.921,9.555
	c8.382,1.462,14.226,8.477,21.668,11.951c13.889,6.482,31.001,8.927,46.161,11.373c12.621,2.036,26.324,6.172,38.863,2.014
	c4.478-1.484,8.206-4.285,13.002-4.389c4.594-0.1,6.26,2.603,10.111,3.889c7.313,2.441,15.734,0.256,23.247,2.821
	c6.784,2.316,12.16,7.548,18.781,10.165c4.895,1.936,10.138,3.617,14.438,5.71c3.173,1.543,4.721,2.477,8.571,2.158
	c6.652-0.551,14.579-3.774,19.962-7.731c6.425-4.724,10.63-11.537,16.891-16.037c5.206-3.743,9.631-3.399,14.998-5.478
	c5.763-2.232,8.612-8.535,13.849-11.05c4.283-2.058,9.739-0.631,14.263-0.447c6.396,0.259,12.435-2.963,17.694-6.279
	c5.491-3.462,11.622-5.23,17.107-8.609c3.303-2.035,6.007-4.687,9.487-6.732c5.416-3.183,12.474-4.31,17.124-8.756
	c4.649-4.446,3.843-10.124,4.989-16.121c0.459-2.404,0.25-5.832,1.598-8.013c2.668-4.319,11.223-6.195,15.416-9.184
	c5.188-3.696,10.369-8.561,12.489-14.738c0.829-2.418-0.059-4.069,0.317-6.399c0.444-2.759,3.187-4.609,4.732-6.985
	c5.339-8.203-1.227-17.751-2.324-26.44c-0.896-7.092,1.938-15.87,5.906-21.785c2.598-3.872,7.701-8.627,6.019-14.141
	c-1.03-3.376-4.558-5.46-5.341-9.058c-1.07-4.92,0.511-11.266,0.999-16.185c0.634-6.389,2.401-12.024,3.987-18.085
	c1.475-5.636,5.39-8.835,7.704-14.063c1.931-4.362,4.325-9.546,4.992-14.259c1.099-7.756,3.157-19.696-0.667-26.917
	c-3.592-6.781-8.471-12.623-11.267-19.898c-1.84-4.789-2.581-10.69-1.075-15.617c2.11-6.898,5.638-10.117,3.735-17.502
	c-2.217-8.607,0.054-17.72-1.819-26.416c-0.69-3.208-1.283-5.617-1.249-8.91c0.053-5.009,3.525-9.213,4.521-13.976
	c1.173-5.61,0.509-12.323,0.589-18.051c0.2-14.444-0.568-29.456-7.893-42.337c-2.377-4.18-6.138-7.005-8.732-10.989
	c-3.604-5.537-5.668-12.203-8.776-18.042c-4.248-7.982-10.182-8.526-17.387-12.623c-7.422-4.221-13.254-11.677-20.877-15.526
	c-8.238-4.159-17.077-2.666-25.816-4.054c-7.252-1.153-9.854-7.633-16.298-10.809c-7.934-3.91-16.666-5.542-25.347-6.815
	c-3.346-0.491-9.268-0.07-12.209-1.646c-2.646-1.417-4.021-4.847-5.931-7.075c-3.457-4.036-10.057-9.434-15.013-11.975
	c-7.051-3.615-17.228-1.16-24.845-1.734c-4.196-0.316-7.146-2.279-10.965-3.048c-5.436-1.095-10.461,1.892-15.065,4.294
	c-7.721,4.028-16.512,1.721-25.012,2.5c-10.271,0.941-17.376,7.55-27.223,10.124c-8.881,2.321-17.538,3.533-26.667,2.249
	c-8.444-1.188-16.396-4.111-25.097-3.371c-15.658,1.333-29.059,10.921-44.725,12.01C229.212,105.058,217.509,119.552,202.61,123.716
	z"/>
</svg>
