<?xml version="1.0" encoding="utf-8"?>
<!-- Generator: Adobe Illustrator 14.0.0, SVG Export Plug-In . SVG Version: 6.00 Build 43363)  -->
<!DOCTYPE svg PUBLIC "-//W3C//DTD SVG 1.1//EN" "http://www.w3.org/Graphics/SVG/1.1/DTD/svg11.dtd">
<svg version="1.1" id="图层_1" xmlns="http://www.w3.org/2000/svg" xmlns:xlink="http://www.w3.org/1999/xlink" x="0px" y="0px"
	 width="699.75px" height="700px" viewBox="0 0 699.75 700" enable-background="new 0 0 699.75 700" xml:space="preserve">
<path fill="#FFFFFF" d="M364.667,312.667c0,0-4.833,0.167-7,5.667c0,0-0.834,3.333-3.167,3.333l-5.667-2.167
	c0,0-3.167-1.667-7,2.167l-15.667,14.5c0,0-2.833,1.833-0.833,5.5c0,0,0.333,3.667,4.333,3.667c0,0,5.333-0.167,6.333,1.167
	c0,0,3.5,4.167-1.083,8.333c0,0-4.167-0.333-6,0.25c0,0-0.333,2.083,0.25,2.833l-2.083,0.25l-1.25,1.667L325,360l-0.083,2.333
	l-0.333,0.75c0,0-0.417,0-0.417,0.25s0.417,1.583,0.417,1.583c0.5-0.167,0.833,1.25,0.833,1.25l0.667,0.583l3.667,0.667l4-0.583
	c0,0,0.667,0.917,0.083,2.5c0.25,0.25,3.083,3.833,3.417,3.833s2.667,0.75,2.667,0.75s6.334,3.167,6.417,3.417
	s3.333,0.667,3.333,0.667s0.584,1.083,0.917,1.083s2.667-0.75,2.667-0.75l1.917-1.333l1.75-0.333l0.25-2.083l-0.25-2.417l-0.833-1.5
	l-1-2.167l-1.75-0.417l-0.667-1.917c0,0-1.583-0.583-1.833-0.583s-4.25-1.333-4.25-1.333s-2.167-1-2.417-1.167
	s-1.833-0.833-1.917-1.083s-0.417-1.5-0.5-1.75s0-2.083,0-2.083s-0.167-1.417,1.833-1.417c0,0,6.25,0.5,9.083-0.083
	c0,0,1.334,3.917,9.5,0.167l5.167-3c0,0,3.333-2.083,6.583-8.333c0.083-0.167,1.999-2.917,3.583-3.833c0,0,4.918-4.25,4.834-7.167
	V331c0,0-0.751-2.25-1.084-2.25s-2-1.666-2.25-1.833s-3.333-4.083-3.333-4.083l-6-8.417l-1.75-2.5L364.667,312.667z"/>
</svg>
