<?xml version="1.0" encoding="utf-8"?>
<!-- Generator: Adobe Illustrator 14.0.0, SVG Export Plug-In . SVG Version: 6.00 Build 43363)  -->
<!DOCTYPE svg PUBLIC "-//W3C//DTD SVG 1.1//EN" "http://www.w3.org/Graphics/SVG/1.1/DTD/svg11.dtd">
<svg version="1.1" id="图层_1" xmlns="http://www.w3.org/2000/svg" xmlns:xlink="http://www.w3.org/1999/xlink" x="0px" y="0px"
	 width="699.75px" height="700px" viewBox="0 0 699.75 700" enable-background="new 0 0 699.75 700" xml:space="preserve">
<g>
	<path fill="#FFFFFF" d="M0,199.833c-0.031-3.222,4.36-2.368,6.024-4.4c3.232-3.945,3.716-10.064,7.001-14.34
		c2.54-3.306,6.733-6.399,7.958-10.52c0.991-3.334,0.256-7.033,1.133-10.414c0.835-3.219,3.07-5.844,4.274-8.919
		c1.244-3.178,2.504-6.943,2.992-10.183c0.647-4.3,0.511-8.015,2.593-12.035c3.758-7.257,10.079-12.15,14.927-18.509
		c4.96-6.505,10.096-7.53,17.463-10.878c10.404-4.728,20.448-11.418,29.284-18.599c9.419-7.654,15.778-20.925,23.195-30.521
		c3.567-4.614,7.775-8.948,10.897-13.917c1.545-2.459,2.414-5.897,4.602-7.95c5.962-5.592,18.063-6.75,25.53-8.963
		c19.641-5.821,36.005-20.38,57.836-19.201c23.479,1.269,47.058,4.389,70,11.216c7.594,2.26,16.652,4.047,23.955,0.866
		c8.873-3.864,17.406-5.997,26.923-8.733c4.89-1.406,9.894-4.237,15.122-3.667h130.666c2.429,0.568,4.306,3.09,6.391,4.425
		c3.091,1.978,6.679,3.303,9.533,5.648c4.427,3.638,8.498,6.717,13.811,9.26c7.865,3.765,16.109,5.4,24.615,7.093
		c4.952,0.985,10.007,1.633,14.771,3.379c5.476,2.006,8.543,6.541,13.55,9.29c3.116,1.711,6.373,1.596,9.659,2.538
		c6.216,1.781,11.231,5.928,16.365,9.637c5.436,3.926,11.146,7.169,15.567,12.37c1.74,2.047,2.539,4.382,3.679,6.716
		c1.354,2.771,3.459,5.155,5.187,7.717c3.689,5.47,6.856,11.297,8.93,17.579c1.569,4.755,6.71,8.505,10.387,11.682
		c2.475,2.138,4.467,4.809,7.134,6.731c2.486,1.791,5.617,2.62,8.361,3.974c3.304,1.63,6.809,2.82,10.031,4.626
		c3.972,2.226,7.193,6.735,7.705,11.327c0.161,1.448,0.031,2.899,0.521,4.31c0.532,1.536,1.725,2.795,2.312,4.329
		c0.438,1.145,0.953,2.539,1.173,3.739c0.296,1.61-0.112,3.209,0.442,4.813c0.592,1.713,2.064,2.854,2.786,4.527
		c1.605,3.726-0.448,7.743,1.308,11.698c1.887,4.251,4.948,7.949,7.266,11.969c2.549,4.42,5.283,9.969,7.235,14.587
		c2.125,5.027-0.419,11.035,2.657,15.838c0.908,1.417,2.08,2.272,3.5,3.062c1.104,0.615,1.364,1.136,2.125,2.094V465.5
		c-9.131-0.977-10.128,22.351-9.889,28.524c0.114,2.944,0.907,6.215-0.086,9.087c-1.523,4.408-5.48,7.904-7.55,12.387
		c-3.241,7.024-1.765,14.012-3.474,21.129c-1.48,6.161,0.383,12.544-2.691,18.188c-3.133,5.751-7.536,12.691-11.832,17.734
		c-2.924,3.433-6.479,6.279-9.843,9.426c-1.982,1.854-3.813,5.079-6.136,6.423c-2,1.158-4.336,0.771-6.4,1.592
		c-5.6,2.228-9.231,8.904-12.693,13.545c-3.476,4.658-8.033,8.025-13.022,10.909c-2.212,1.279-4.287,2.97-6.541,4.098
		c-2.436,1.219-5.229,1.388-7.492,3.024c-3.713,2.688-6.514,6.447-9.582,9.802c-3.028,3.311-7.006,4.475-10.359,7.392
		c-2.762,2.401-5.539,4.719-8.491,6.998c-4.109,3.174-9.214,6.223-14.352,7.267c-2.788,0.566-4.91-0.469-7.548-0.346
		c-2.99,0.139-5.514,1.502-8.674,1.136c-3.308-0.384-6.353-1.345-9.743-1.314c-14.248,0.127-27.041,6.308-38.584,14.084
		c-5.519,3.718-11.752,5.863-18.025,8.008c-13.278,4.538-21.12,18.372-34.799,22.064c-8.449,2.281-18.515,0.988-27.192,1.025
		c-10.812,0.046-21.64-0.166-32.389-1.421c-11.771-1.374-21.081-5.893-31.936-10.175c-6.802-2.684-13.885-5.93-20.936-8.01
		c-2.921-0.861-5.164-2.721-8.262-3.182c-3.607-0.536-7.368,0.211-10.861,1.074c-7.138,1.765-14.006,5.327-21.342,6.208
		c-10.113,1.213-20.086,0.382-29.95,3.231c-9.276,2.681-16.964-0.117-26.024-1.17c-8.005-0.93-15.486,1.906-23.543-1.146
		c-4.531-1.716-7.8-4.477-11.094-8.012c-4.229-4.536-7.879-4.784-13.541-6.796c-8.715-3.098-13.85-13.488-21.882-18.385
		c-6.622-4.037-14.938-3.344-21.494-7.18c-6.899-4.038-14.716-4.658-22.156-7.22c-3.766-1.297-7.49-3.012-11.101-4.312
		c-3.388-1.22-7.042-0.284-10.492-1.113c-3.051-0.732-5.174-1.678-7.984-2.926c-7.48-3.323-15.917-3.309-23.35-6.982
		c-6.429-3.178-12.932-6.528-18.455-11.159c-6.776-5.683-8.267-11.883-8.872-20.169c-0.3-4.108-1.866-7.972-3.006-11.922
		c-1.804-6.253-6.85-10.234-10.926-15.083c-7.031-8.363-3-17.472-5.316-27.334c-2.635-11.221-5.247-23.074-9.833-33.685
		c-1.601-3.702-4.135-7.19-6.008-10.74c-1.246-2.361-4.146-4.337-3.625-7.242V199.833z"/>
</g>
</svg>
