<?xml version="1.0" encoding="utf-8"?>
<!-- Generator: Adobe Illustrator 14.0.0, SVG Export Plug-In . SVG Version: 6.00 Build 43363)  -->
<!DOCTYPE svg PUBLIC "-//W3C//DTD SVG 1.1//EN" "http://www.w3.org/Graphics/SVG/1.1/DTD/svg11.dtd">
<svg version="1.1" id="图层_1" xmlns="http://www.w3.org/2000/svg" xmlns:xlink="http://www.w3.org/1999/xlink" x="0px" y="0px"
	 width="699.75px" height="700px" viewBox="0 0 699.75 700" enable-background="new 0 0 699.75 700" xml:space="preserve">
<path fill="#FFFFFF" d="M700.625,101c0.148-2.768-2.087-2.679-3.875-4.474c-1.824-1.832-2.57-4.713-3.5-7.026
	c-2.903-7.215-3.447-8.685-10.387-12.611c-3.981-2.252-7.308-4.553-9.488-8.415c-2.537-4.493-2.742-6.261-7.475-9.001
	c-8.19-4.744-8.1-12.321-9.025-21.473c-0.785-7.764-4.714-15.169-9.475-21.5c-6.177-8.216-19.121-7.528-25.525-16.216h-569
	c-8.221-0.265-10.798,8.564-14.363,13.828C34.072,20.667,27.04,25.495,23,32.014c-4.505,7.272-5.736,15.346-12.263,21.847
	C6.234,58.348,0.625,60.901,0.125,67.5v540c8.049,4.876,13.18,12.9,20.762,18.025c2.129,1.439,6.432,1.409,7.913,3.453
	c2.344,3.236,0.346,9.017,0.856,12.663c0.848,6.056,3.259,12.473,4.608,18.509c1.235,5.527,3.083,19.412,12,14.225
	c3.71-2.159,3.32-7.631,8.611-6.011c4.013,1.229,3.539,5.757,6.502,8.024c2.905,2.224,6.454,1.409,8.873,4.622
	c3.397,4.513-1.68,16.913,3.125,19.739h587c8.093-2.775,6.32-13.453,4.498-19.748c-0.797-2.755-3.04-7.422-1.645-10.139
	c1.349-2.628,5.741-3.388,8.035-4.475c2.786-1.319,7.73-3.161,9.636-5.512c2.01-2.48,1.362-6.354,3.438-8.525
	c1.833-1.918,6.349-2.981,8.637-4.854c2.743-2.244,6.664-4.553,7.65-7.998V101z"/>
</svg>
